<svg viewBox="0 0 100 100"><path d="M 18.288267,0 C 8.17562,0 0,8.17567 0,18.28827 l 0,63.42337 c 0,10.1126 8.17562,18.2884 18.288267,18.2884 l 63.40543,0 c 10.11264,0 18.3063,-8.1758 18.3063,-18.2884 l 0,-63.42337 C 99.999997,8.17567 91.806337,0 81.693697,0 l -63.40543,0 z m 61.84682,25.76577 c 2.65779,-0.38284 5.18047,1.77923 5.63067,4.86483 l 4.8919,33.93694 c 0.45065,3.0631 -1.33332,5.8604 -3.99101,6.2433 l -65.63065,9.5045 c -2.6576,0.3828 -5.18042,-1.8018 -5.63061,-4.8649 L 10.49549,41.50451 c -0.45065,-3.06305 1.35131,-5.85142 4.00901,-6.23426 l 65.630587,-9.50448 z m -0.10793,5.64866 -64.44147,9.44141 0.8919,6.11711 64.45046,-9.44142 -0.90089,-6.1171 z m 2.22522,15.14412 -64.45046,9.44139 2.7838,19.0451 64.45945,-9.4414 -2.79279,-19.04509 z m -28.26125,9.45049 0.40545,2.7477 -31.21622,4.5946 -0.40545,-2.7928 31.21622,-4.5495 z m 1.18918,6.3513 0.40545,2.7477 -31.21622,4.5766 -0.40545,-2.7477 31.21622,-4.5766 z" fill="{primary}"/></svg>
