<svg viewBox="0 0 100 16"><path d="m 35.150035,8.95 0,2.772 c 0,0.041 -0.013,0.077 -0.0391,0.11 -0.026,0.033 -0.0695,0.058 -0.13028,0.08 -0.0615,0.02 -0.1433,0.036 -0.24607,0.049 -0.10495,0.013 -0.23377,0.019 -0.38793,0.019 -0.15923,0 -0.2895,-0.01 -0.39082,-0.018 -0.10133,-0.012 -0.18311,-0.028 -0.24608,-0.048 -0.063,-0.02 -0.10639,-0.046 -0.13027,-0.08 -0.0253,-0.033 -0.0362,-0.069 -0.0362,-0.1086 l 0,-2.7763 -2.15822,-4.2961 c -0.0774,-0.1499 -0.12665,-0.2678 -0.14909,-0.3503 -0.0217,-0.083 -0.0101,-0.1462 0.0362,-0.1882 0.047,-0.043 0.13317,-0.07 0.2591,-0.08 0.12593,-0.01 0.30108,-0.014 0.52399,-0.014 0.18673,0 0.33655,0.01 0.44873,0.012 0.11073,0.01 0.19903,0.023 0.26416,0.046 0.0651,0.023 0.11291,0.053 0.14331,0.089 0.0311,0.036 0.0608,0.083 0.089,0.1397 l 0.8779,1.9382 c 0.0854,0.1867 0.16936,0.3836 0.25332,0.5913 0.0825,0.2077 0.16646,0.4248 0.25186,0.6514 l 0.0123,0 c 0.0782,-0.2186 0.15705,-0.4314 0.23884,-0.6391 0.0811,-0.207 0.15922,-0.4039 0.23739,-0.5906 l 0.8656,-1.9252 c 0.0203,-0.065 0.0456,-0.1158 0.076,-0.1556 0.029,-0.038 0.0753,-0.07 0.13606,-0.094 0.0615,-0.025 0.14475,-0.041 0.25042,-0.049 0.10494,-0.01 0.24608,-0.012 0.41977,-0.012 0.2316,0 0.41254,0.01 0.53992,0.016 0.12738,0.01 0.21495,0.036 0.262,0.08 0.0463,0.042 0.0579,0.1064 0.0333,0.1918 -0.0246,0.085 -0.0724,0.2012 -0.1462,0.3474 z m -3.57894,2.3942 c 0.0492,0.1469 0.0796,0.2627 0.0912,0.3474 0.0123,0.087 -0.004,0.1498 -0.0485,0.1925 -0.0456,0.043 -0.12448,0.069 -0.23883,0.08 -0.11291,0.01 -0.26996,0.014 -0.46899,0.014 -0.20699,0 -0.36911,0 -0.48491,-0.01 -0.1158,-0.01 -0.20265,-0.018 -0.26417,-0.036 -0.0608,-0.018 -0.1035,-0.043 -0.1281,-0.076 -0.0246,-0.033 -0.0449,-0.075 -0.0608,-0.1281 l -0.53051,-1.5836 -2.96013,0 -0.50083,1.5416 c -0.0145,0.058 -0.0362,0.105 -0.063,0.1433 -0.0268,0.038 -0.0695,0.069 -0.12811,0.092 -0.0579,0.022 -0.14185,0.038 -0.24969,0.046 -0.10711,0.01 -0.24824,0.012 -0.42267,0.012 -0.18817,0 -0.33292,-0.01 -0.43931,-0.018 -0.10639,-0.012 -0.17949,-0.041 -0.22002,-0.088 -0.0405,-0.047 -0.0543,-0.1129 -0.0434,-0.1983 0.013,-0.085 0.0434,-0.199 0.0926,-0.3416 l 2.43179,-6.995 c 0.0239,-0.07 0.0521,-0.1259 0.0847,-0.1686 0.0333,-0.043 0.0847,-0.075 0.15633,-0.097 0.0709,-0.022 0.16936,-0.036 0.29529,-0.043 0.12593,-0.01 0.29239,-0.01 0.49938,-0.01 0.24029,0 0.43063,0 0.57321,0.01 0.14186,0.01 0.25331,0.02 0.33293,0.043 0.0782,0.022 0.13534,0.055 0.16935,0.1 0.0347,0.045 0.0651,0.1056 0.089,0.1823 z m -3.61873,-5.7828 -0.007,0 -1.11458,3.3524 2.23638,0 z m -3.54347,0.8903 c 0,0.4429 -0.0688,0.8352 -0.207,1.176 -0.13751,0.3417 -0.34016,0.6297 -0.60288,0.8613 -0.26417,0.2345 -0.5884,0.4125 -0.97199,0.5341 -0.38359,0.1216 -0.83521,0.1831 -1.35558,0.1831 l -0.65861,0 0,2.5165 c 0,0.041 -0.0123,0.077 -0.0391,0.1086 -0.0261,0.033 -0.0702,0.059 -0.13028,0.08 -0.0615,0.022 -0.14257,0.038 -0.24462,0.049 -0.10133,0.013 -0.2316,0.019 -0.38938,0.019 -0.15488,0 -0.28371,-0.01 -0.3872,-0.018 -0.1035,-0.012 -0.18601,-0.028 -0.24608,-0.048 -0.0615,-0.02 -0.10422,-0.046 -0.12883,-0.08 -0.0239,-0.033 -0.0362,-0.069 -0.0362,-0.1086 l 0,-7.0927 c 0,-0.1918 0.0492,-0.3351 0.1491,-0.4307 0.0992,-0.096 0.23015,-0.1447 0.39299,-0.1447 l 1.85714,0 c 0.18817,0 0.36549,0.01 0.53412,0.022 0.16864,0.014 0.37056,0.045 0.60578,0.092 0.23594,0.046 0.47478,0.1324 0.71651,0.2584 0.24173,0.1259 0.44728,0.2859 0.61808,0.4777 0.17008,0.1939 0.30036,0.4197 0.38938,0.6774 0.0898,0.2576 0.13389,0.5471 0.13389,0.8685 z m -1.67548,0.1158 c 0,-0.2765 -0.0485,-0.5038 -0.1462,-0.6825 -0.0977,-0.1788 -0.21712,-0.3113 -0.3597,-0.3959 -0.14258,-0.085 -0.29239,-0.139 -0.44872,-0.1614 -0.15633,-0.022 -0.31845,-0.033 -0.48491,-0.033 l -0.6796,0 0,2.6757 0.71868,0 c 0.25693,0 0.47043,-0.035 0.64413,-0.1035 0.17226,-0.069 0.31339,-0.1665 0.4234,-0.2895 0.10856,-0.1245 0.19324,-0.2721 0.24969,-0.4451 0.0579,-0.1737 0.0854,-0.3619 0.0854,-0.5645 z" fill="{primary}"/><path d="m 93.213425,8.8588 c 0,0.1868 -0.0412,0.3257 -0.12449,0.414 -0.0832,0.09 -0.19758,0.1339 -0.34378,0.1339 l -3.30897,0 c 0,0.2316 0.029,0.4415 0.0832,0.6311 0.0543,0.1882 0.14185,0.3496 0.26199,0.4813 0.11942,0.1317 0.27358,0.2316 0.4632,0.3018 0.18818,0.069 0.41471,0.1035 0.67888,0.1035 0.26778,0 0.50373,-0.02 0.7071,-0.058 0.20265,-0.038 0.37852,-0.081 0.52689,-0.1281 0.14837,-0.046 0.2714,-0.089 0.36911,-0.1281 0.097,-0.038 0.17659,-0.058 0.23739,-0.058 0.0362,0 0.0666,0.01 0.0912,0.022 0.0246,0.014 0.0449,0.04 0.0608,0.077 0.0167,0.036 0.0275,0.088 0.034,0.1549 0.007,0.067 0.009,0.152 0.009,0.2533 0,0.089 -0.001,0.165 -0.007,0.228 -0.003,0.064 -0.009,0.118 -0.0174,0.1628 -0.007,0.045 -0.0203,0.082 -0.0362,0.1122 -0.0166,0.03 -0.0376,0.06 -0.0651,0.088 -0.0253,0.029 -0.0977,0.067 -0.21568,0.1158 -0.11725,0.048 -0.26778,0.097 -0.45089,0.1433 -0.18239,0.046 -0.39083,0.087 -0.62749,0.123 -0.23594,0.034 -0.48781,0.051 -0.75559,0.051 -0.48274,0 -0.90614,-0.06 -1.26946,-0.1823 -0.36404,-0.1216 -0.66729,-0.3069 -0.91192,-0.5544 -0.24318,-0.2483 -0.42484,-0.5609 -0.54426,-0.9387 -0.12014,-0.3778 -0.18094,-0.8208 -0.18094,-1.3281 0,-0.4835 0.0637,-0.9192 0.18963,-1.3071 0.12593,-0.3879 0.30904,-0.7165 0.5486,-0.9872 0.23883,-0.2699 0.53123,-0.4762 0.87428,-0.6188 0.34306,-0.1418 0.73099,-0.2128 1.1609,-0.2128 0.45596,0 0.84389,0.068 1.16668,0.2027 0.32351,0.1331 0.5884,0.3184 0.79612,0.5573 0.20627,0.2366 0.35898,0.5182 0.45596,0.8431 0.0977,0.3257 0.14692,0.6782 0.14692,1.0603 z m -1.48586,-0.4386 c 0.0123,-0.4306 -0.0745,-0.7693 -0.2591,-1.0146 -0.186,-0.2461 -0.47043,-0.3692 -0.85692,-0.3692 -0.19541,0 -0.36477,0.036 -0.50879,0.11 -0.14475,0.072 -0.26417,0.1716 -0.3597,0.2953 -0.0955,0.1231 -0.16864,0.27 -0.2193,0.4386 -0.0507,0.1687 -0.0796,0.3489 -0.0883,0.5399 z m -4.64791,-1.6154 c 0,0.1462 -0.004,0.2664 -0.0123,0.3597 -0.007,0.094 -0.0203,0.1665 -0.0362,0.2193 -0.0167,0.053 -0.0376,0.09 -0.0651,0.11 -0.0253,0.02 -0.0579,0.03 -0.0999,0.03 -0.0319,0 -0.0688,-0.01 -0.10856,-0.022 -0.0412,-0.014 -0.0868,-0.029 -0.13751,-0.046 -0.0507,-0.017 -0.10711,-0.032 -0.16791,-0.046 -0.0608,-0.014 -0.1281,-0.022 -0.2012,-0.022 -0.0854,0 -0.17081,0.017 -0.25621,0.052 -0.0847,0.035 -0.1737,0.088 -0.26489,0.1614 -0.0912,0.074 -0.18673,0.1716 -0.2866,0.2932 -0.0991,0.1215 -0.20555,0.2721 -0.3199,0.4509 l 0,3.3871 c 0,0.041 -0.0116,0.077 -0.0362,0.1086 -0.0246,0.029 -0.0651,0.055 -0.12521,0.075 -0.0593,0.02 -0.13751,0.036 -0.23522,0.046 -0.0977,0.01 -0.22146,0.014 -0.37128,0.014 -0.15054,0 -0.27502,-0.01 -0.37201,-0.014 -0.0977,-0.01 -0.17587,-0.025 -0.23449,-0.046 -0.0593,-0.02 -0.10132,-0.046 -0.12521,-0.076 -0.0232,-0.03 -0.0362,-0.065 -0.0362,-0.1072 l 0,-5.4353 c 0,-0.041 0.0109,-0.077 0.0311,-0.1071 0.0203,-0.03 0.0579,-0.056 0.10856,-0.076 0.0536,-0.02 0.12159,-0.036 0.20482,-0.046 0.0832,-0.01 0.18818,-0.014 0.31411,-0.014 0.13028,0 0.23739,0.01 0.32279,0.014 0.0854,0.01 0.15199,0.025 0.19831,0.046 0.0463,0.02 0.0796,0.046 0.10132,0.076 0.0195,0.03 0.029,0.065 0.029,0.1064 l 0,0.6759 c 0.14258,-0.2026 0.2772,-0.3705 0.40313,-0.503 0.12593,-0.1324 0.24608,-0.2373 0.35898,-0.3148 0.11435,-0.077 0.22798,-0.1303 0.34161,-0.1614 0.11363,-0.03 0.22726,-0.046 0.34016,-0.046 0.0536,0 0.11073,0 0.17153,0.01 0.0608,0.01 0.12304,0.016 0.18817,0.03 0.0651,0.014 0.12304,0.03 0.17153,0.048 0.0478,0.019 0.0832,0.038 0.10567,0.058 0.0217,0.022 0.0384,0.043 0.0492,0.068 0.0101,0.025 0.0188,0.058 0.0268,0.1013 0.009,0.042 0.0145,0.1064 0.0195,0.1911 0.004,0.085 0.007,0.2012 0.007,0.3474 z m -5.33764,4.9483 c 0,0.058 -0.0203,0.1013 -0.0608,0.1339 -0.0405,0.033 -0.10421,0.056 -0.19179,0.07 -0.0869,0.014 -0.21568,0.022 -0.38648,0.022 -0.18238,0 -0.31555,-0.01 -0.39806,-0.022 -0.084,-0.014 -0.1433,-0.038 -0.17732,-0.07 -0.034,-0.033 -0.0507,-0.077 -0.0507,-0.1339 l 0,-0.4328 c -0.22436,0.2388 -0.47912,0.427 -0.76572,0.5609 -0.28589,0.1339 -0.60433,0.2012 -0.95318,0.2012 -0.2895,0 -0.55367,-0.038 -0.79612,-0.1129 -0.24101,-0.075 -0.45017,-0.1867 -0.62677,-0.3351 -0.17732,-0.1476 -0.31483,-0.3315 -0.41253,-0.55 -0.097,-0.2201 -0.1462,-0.4763 -0.1462,-0.7687 0,-0.317 0.0622,-0.592 0.186,-0.825 0.12304,-0.2345 0.30904,-0.427 0.55439,-0.579 0.24608,-0.152 0.55222,-0.2656 0.91771,-0.3387 0.36622,-0.072 0.79034,-0.1101 1.2738,-0.1101 l 0.53051,0 0,-0.3285 c 0,-0.1708 -0.0167,-0.3199 -0.0507,-0.4488 -0.0362,-0.1273 -0.0919,-0.2337 -0.17153,-0.3184 -0.0796,-0.087 -0.18456,-0.1491 -0.317,-0.1896 -0.13172,-0.041 -0.29529,-0.061 -0.48998,-0.061 -0.25621,0 -0.48491,0.029 -0.68539,0.085 -0.20048,0.058 -0.37852,0.1194 -0.53268,0.1882 -0.15416,0.07 -0.28371,0.1324 -0.3872,0.1896 -0.10422,0.058 -0.18818,0.085 -0.25331,0.085 -0.0449,0 -0.0847,-0.014 -0.1187,-0.043 -0.0347,-0.028 -0.063,-0.068 -0.0854,-0.1216 -0.0217,-0.053 -0.0398,-0.1173 -0.0521,-0.1954 -0.0123,-0.077 -0.0181,-0.1621 -0.0181,-0.2555 0,-0.1259 0.0109,-0.2244 0.0311,-0.2982 0.0203,-0.072 0.0579,-0.1397 0.1158,-0.1983 0.0579,-0.059 0.15633,-0.1245 0.29819,-0.1954 0.14257,-0.071 0.30904,-0.1375 0.49938,-0.1983 0.19179,-0.061 0.39951,-0.1108 0.62532,-0.1491 0.22436,-0.038 0.45741,-0.058 0.69697,-0.058 0.42701,0 0.79105,0.041 1.09286,0.1245 0.30397,0.083 0.55222,0.2113 0.74763,0.3836 0.19541,0.1737 0.33654,0.3958 0.42701,0.668 0.0883,0.2721 0.13317,0.5949 0.13317,0.9684 z m -1.50539,-2.3276 -0.58479,0 c -0.24752,0 -0.45886,0.017 -0.63328,0.054 -0.17515,0.036 -0.317,0.091 -0.42701,0.1643 -0.10856,0.072 -0.18962,0.1614 -0.24028,0.2649 -0.0507,0.1035 -0.076,0.2229 -0.076,0.3568 0,0.228 0.0724,0.4068 0.21712,0.537 0.1433,0.1303 0.34306,0.1955 0.59926,0.1955 0.21496,0 0.41254,-0.056 0.59348,-0.1651 0.18093,-0.11 0.36549,-0.2699 0.55222,-0.4813 z m -4.98373,2.3088 c 0,0.04 -0.0101,0.076 -0.0304,0.1064 -0.0203,0.03 -0.0557,0.056 -0.10711,0.076 -0.0507,0.02 -0.11725,0.036 -0.20048,0.046 -0.084,0.01 -0.18818,0.014 -0.31411,0.014 -0.13389,0 -0.24245,-0.01 -0.32568,-0.014 -0.084,-0.01 -0.14982,-0.025 -0.19831,-0.046 -0.0507,-0.02 -0.084,-0.046 -0.10422,-0.076 -0.0203,-0.03 -0.0304,-0.065 -0.0304,-0.1064 l 0,-0.6275 c -0.30108,0.3257 -0.6065,0.5681 -0.91771,0.731 -0.31121,0.1621 -0.63256,0.2439 -0.96548,0.2439 -0.37346,0 -0.68756,-0.061 -0.94087,-0.1831 -0.25476,-0.1216 -0.45958,-0.2881 -0.61519,-0.4994 -0.15705,-0.2113 -0.26923,-0.456 -0.33582,-0.7346 -0.0673,-0.2779 -0.10132,-0.6246 -0.10132,-1.0386 l 0,-3.3263 c 0,-0.041 0.0116,-0.077 0.034,-0.1071 0.0217,-0.03 0.063,-0.056 0.12159,-0.076 0.0593,-0.02 0.13751,-0.036 0.23883,-0.046 0.0984,-0.01 0.22147,-0.014 0.36767,-0.014 0.15198,0 0.27502,0.01 0.37273,0.014 0.0977,0.01 0.17587,0.025 0.23449,0.046 0.0579,0.02 0.0999,0.046 0.12449,0.076 0.0239,0.03 0.0362,0.065 0.0362,0.1071 l 0,3.0708 c 0,0.2845 0.0181,0.5016 0.055,0.6514 0.0362,0.152 0.0919,0.2801 0.16646,0.3872 0.076,0.1086 0.17153,0.1911 0.28733,0.2504 0.1158,0.058 0.25114,0.088 0.40529,0.088 0.19542,0 0.39083,-0.071 0.58769,-0.2135 0.19758,-0.1411 0.40747,-0.3488 0.63111,-0.621 l 0,-3.6136 c 0,-0.041 0.0101,-0.077 0.0326,-0.1071 0.0217,-0.03 0.063,-0.056 0.12159,-0.076 0.0593,-0.02 0.13751,-0.036 0.23521,-0.046 0.097,-0.01 0.22147,-0.014 0.37129,-0.014 0.15198,0 0.27502,0.01 0.37273,0.014 0.097,0.01 0.1737,0.025 0.2316,0.046 0.0564,0.02 0.097,0.046 0.12159,0.076 0.0246,0.03 0.0362,0.065 0.0362,0.1071 z m -7.01311,2.1568 c 0,0.04 -0.013,0.077 -0.0362,0.11 -0.0253,0.033 -0.0651,0.06 -0.12304,0.082 -0.0564,0.022 -0.13389,0.04 -0.2316,0.052 -0.097,0.012 -0.22074,0.018 -0.37128,0.018 -0.14982,0 -0.27358,-0.01 -0.37129,-0.018 -0.097,-0.012 -0.17514,-0.029 -0.23449,-0.052 -0.0579,-0.022 -0.0992,-0.051 -0.12159,-0.082 -0.0217,-0.033 -0.034,-0.069 -0.034,-0.11 l 0,-2.5838 c -0.1462,0.1346 -0.28805,0.2511 -0.42701,0.3503 -0.13751,0.1 -0.27503,0.1809 -0.41399,0.2439 -0.13751,0.064 -0.28009,0.1085 -0.42701,0.1375 -0.14475,0.029 -0.29963,0.043 -0.46319,0.043 -0.39807,0 -0.73606,-0.08 -1.01687,-0.241 -0.27937,-0.1607 -0.50807,-0.3764 -0.68467,-0.6492 -0.17659,-0.2721 -0.30542,-0.5899 -0.3872,-0.9532 -0.0818,-0.364 -0.12304,-0.7469 -0.12304,-1.1486 0,-0.4834 0.0536,-0.9191 0.15923,-1.3042 0.10566,-0.3857 0.26055,-0.715 0.46319,-0.9872 0.20265,-0.2721 0.45307,-0.4813 0.74908,-0.6275 0.29674,-0.1462 0.6398,-0.2193 1.0299,-0.2193 0.15054,0 0.29456,0.014 0.4328,0.046 0.13751,0.03 0.27647,0.083 0.41471,0.1593 0.13751,0.075 0.28009,0.1715 0.42845,0.2916 0.14837,0.1195 0.31122,0.2678 0.49071,0.4415 l 0,-0.5913 c 0,-0.041 0.0109,-0.077 0.0333,-0.1071 0.0217,-0.03 0.0593,-0.056 0.11001,-0.076 0.0507,-0.02 0.1158,-0.036 0.19758,-0.046 0.0825,-0.01 0.18817,-0.014 0.31845,-0.014 0.12159,0 0.22436,0.01 0.30687,0.014 0.0832,0.01 0.14981,0.025 0.1983,0.046 0.0485,0.02 0.0832,0.046 0.1035,0.076 0.0217,0.03 0.0311,0.065 0.0311,0.1064 z m -1.52422,-5.7886 c -0.21929,-0.2765 -0.42918,-0.4878 -0.62966,-0.634 -0.20265,-0.1462 -0.41253,-0.2193 -0.63111,-0.2193 -0.19903,0 -0.37128,0.051 -0.5153,0.1491 -0.14475,0.099 -0.26055,0.2316 -0.3474,0.3981 -0.0869,0.1664 -0.15199,0.3532 -0.19541,0.5573 -0.042,0.2062 -0.0637,0.4161 -0.0637,0.6318 0,0.2272 0.0188,0.4487 0.055,0.6658 0.0362,0.2186 0.097,0.4104 0.18093,0.5769 0.0825,0.1664 0.19324,0.3003 0.33075,0.4024 0.13752,0.1013 0.31266,0.152 0.524,0.152 0.10494,0 0.20771,-0.014 0.30759,-0.046 0.0984,-0.03 0.20048,-0.08 0.30398,-0.1491 0.10349,-0.069 0.20988,-0.1593 0.31989,-0.2714 0.10856,-0.1115 0.22943,-0.2483 0.35898,-0.4111 z m -5.09518,2.096 c 0,0.309 -0.0579,0.5812 -0.1737,0.8164 -0.1158,0.2359 -0.28009,0.4328 -0.49215,0.5913 -0.20989,0.1592 -0.4603,0.2772 -0.74835,0.3561 -0.2895,0.08 -0.60072,0.1194 -0.93871,0.1194 -0.20264,0 -0.39806,-0.014 -0.58189,-0.046 -0.18528,-0.03 -0.35029,-0.069 -0.49649,-0.1158 -0.1462,-0.046 -0.26779,-0.094 -0.36549,-0.1433 -0.0977,-0.049 -0.16864,-0.096 -0.21351,-0.1375 -0.0449,-0.043 -0.0796,-0.11 -0.10349,-0.2012 -0.0246,-0.092 -0.0362,-0.2266 -0.0362,-0.4053 0,-0.118 0.003,-0.2128 0.0116,-0.2837 0.007,-0.071 0.0203,-0.1281 0.0362,-0.1708 0.0167,-0.043 0.0362,-0.071 0.0615,-0.085 0.0239,-0.014 0.055,-0.022 0.0912,-0.022 0.0456,0 0.11145,0.025 0.19903,0.076 0.0869,0.051 0.19541,0.1064 0.32568,0.1664 0.13028,0.062 0.28227,0.1187 0.45379,0.1716 0.1737,0.052 0.36912,0.08 0.58841,0.08 0.13751,0 0.26055,-0.014 0.36911,-0.043 0.10712,-0.029 0.20048,-0.069 0.28009,-0.1231 0.0796,-0.052 0.13896,-0.1187 0.17949,-0.2005 0.0405,-0.081 0.0608,-0.1737 0.0608,-0.2801 0,-0.1215 -0.0376,-0.2265 -0.1129,-0.3141 -0.0745,-0.087 -0.1737,-0.1635 -0.29819,-0.2279 -0.12303,-0.065 -0.26416,-0.126 -0.41977,-0.1831 -0.15705,-0.058 -0.31845,-0.1195 -0.48202,-0.1882 -0.16501,-0.069 -0.32568,-0.1491 -0.48129,-0.2389 -0.15633,-0.089 -0.29673,-0.1983 -0.41977,-0.3285 -0.12449,-0.1303 -0.22436,-0.2866 -0.29963,-0.469 -0.0745,-0.1831 -0.11218,-0.4024 -0.11218,-0.6586 0,-0.2606 0.0507,-0.4994 0.15198,-0.7166 0.10133,-0.2171 0.24825,-0.4024 0.43932,-0.5572 0.19107,-0.1535 0.42339,-0.2736 0.69769,-0.359 0.27502,-0.085 0.58189,-0.1281 0.9235,-0.1281 0.17008,0 0.33582,0.012 0.49649,0.036 0.16068,0.024 0.30543,0.054 0.4357,0.091 0.13027,0.036 0.23884,0.076 0.32858,0.1187 0.0897,0.043 0.15344,0.08 0.19252,0.1085 0.0384,0.031 0.0651,0.061 0.0818,0.093 0.0167,0.03 0.029,0.067 0.0362,0.1086 0.009,0.043 0.0159,0.096 0.0217,0.1592 0.007,0.063 0.009,0.1412 0.009,0.2345 0,0.11 -0.003,0.199 -0.009,0.2678 -0.006,0.07 -0.0159,0.1245 -0.0304,0.165 -0.013,0.041 -0.0326,0.068 -0.0579,0.082 -0.0232,0.014 -0.0521,0.022 -0.0847,0.022 -0.0362,0 -0.0941,-0.022 -0.17008,-0.064 -0.0774,-0.043 -0.1737,-0.089 -0.2895,-0.1375 -0.1158,-0.048 -0.25042,-0.094 -0.40241,-0.1375 -0.15198,-0.042 -0.32568,-0.063 -0.52109,-0.063 -0.13752,0 -0.25766,0.014 -0.35971,0.042 -0.10132,0.029 -0.18455,0.069 -0.24969,0.1216 -0.0651,0.053 -0.11363,0.1158 -0.1462,0.186 -0.0326,0.071 -0.0485,0.1469 -0.0485,0.2287 0,0.1252 0.0391,0.2316 0.1158,0.3155 0.0774,0.085 0.17949,0.1607 0.30542,0.2259 0.12594,0.065 0.26924,0.1259 0.42919,0.1823 0.16067,0.058 0.32279,0.1195 0.4878,0.186 0.16357,0.067 0.32569,0.1448 0.48636,0.2345 0.16067,0.091 0.30398,0.1998 0.42991,0.3301 0.12593,0.1302 0.22725,0.2851 0.30397,0.4661 0.0782,0.1809 0.1158,0.3951 0.1158,0.6426 z m -10.03694,1.7435 -0.65861,1.9252 c -0.0362,0.1013 -0.13534,0.1751 -0.29818,0.22 -0.16212,0.045 -0.40023,0.067 -0.71289,0.067 -0.16212,0 -0.2924,-0.01 -0.39083,-0.022 -0.0963,-0.014 -0.17008,-0.038 -0.21857,-0.07 -0.0478,-0.033 -0.0745,-0.072 -0.0782,-0.123 -0.004,-0.048 0.007,-0.1064 0.0362,-0.1759 l 0.7252,-1.8217 c -0.0528,-0.025 -0.10133,-0.062 -0.1433,-0.1129 -0.0434,-0.051 -0.0738,-0.1049 -0.0941,-0.1614 l -1.87089,-4.9967 c -0.0521,-0.1426 -0.0796,-0.2512 -0.0796,-0.3257 0,-0.075 0.0253,-0.1346 0.0738,-0.1773 0.0492,-0.043 0.13027,-0.072 0.24607,-0.088 0.1158,-0.017 0.26996,-0.025 0.46103,-0.025 0.1737,0 0.31121,0 0.41398,0.01 0.10133,0.01 0.18094,0.022 0.23739,0.046 0.0579,0.025 0.0992,0.062 0.12811,0.1129 0.0289,0.051 0.0564,0.123 0.0854,0.2171 l 1.27958,3.6368 0.0181,0 1.1703,-3.7114 c 0.0239,-0.1056 0.0557,-0.1758 0.0941,-0.2099 0.0384,-0.036 0.10277,-0.061 0.19179,-0.077 0.0897,-0.017 0.24608,-0.025 0.47044,-0.025 0.1737,0 0.31845,0.01 0.43425,0.025 0.1158,0.016 0.2012,0.046 0.25621,0.091 0.055,0.045 0.0825,0.105 0.0825,0.181 0,0.074 -0.0166,0.1628 -0.0492,0.2641 z m -4.61751,-2.9978 c 0,0.4835 -0.0521,0.9178 -0.15777,1.3028 -0.10567,0.3872 -0.25838,0.7165 -0.45741,0.9879 -0.19903,0.2714 -0.44366,0.4806 -0.73388,0.6275 -0.29095,0.1462 -0.62098,0.2193 -0.99009,0.2193 -0.18311,0 -0.35464,-0.017 -0.51241,-0.052 -0.15923,-0.035 -0.30977,-0.091 -0.45379,-0.1679 -0.14475,-0.077 -0.28661,-0.1737 -0.42701,-0.2924 -0.13969,-0.118 -0.28227,-0.2606 -0.42919,-0.427 l 0,0.5913 c 0,0.043 -0.0109,0.082 -0.0333,0.1122 -0.0217,0.03 -0.0579,0.056 -0.11001,0.076 -0.0507,0.02 -0.11869,0.035 -0.20409,0.043 -0.0854,0.01 -0.18818,0.012 -0.31121,0.012 -0.12521,0 -0.23016,0 -0.31339,-0.012 -0.0832,-0.01 -0.14981,-0.023 -0.20048,-0.043 -0.0507,-0.02 -0.0868,-0.046 -0.10711,-0.076 -0.0203,-0.03 -0.0304,-0.068 -0.0304,-0.113 l 0,-8.0111 c 0,-0.041 0.0123,-0.077 0.0362,-0.11 0.0246,-0.033 0.0666,-0.06 0.12521,-0.082 0.0594,-0.022 0.13751,-0.04 0.23449,-0.052 0.0977,-0.012 0.22147,-0.017 0.37201,-0.017 0.15199,0 0.27502,0.01 0.372,0.018 0.0977,0.013 0.17588,0.03 0.23522,0.053 0.0579,0.022 0.0999,0.051 0.12304,0.082 0.0253,0.033 0.0376,0.069 0.0376,0.11 l 0,3.0035 c 0.13751,-0.1375 0.27502,-0.2554 0.41398,-0.3531 0.13752,-0.097 0.27648,-0.1774 0.41471,-0.2403 0.13751,-0.063 0.28009,-0.1086 0.42701,-0.1375 0.14475,-0.029 0.29963,-0.043 0.4632,-0.043 0.40168,0 0.74257,0.081 1.02266,0.2417 0.28081,0.1607 0.50879,0.3763 0.68611,0.6485 0.17659,0.2728 0.30542,0.5905 0.38648,0.9539 0.0818,0.364 0.12304,0.7469 0.12304,1.1485 z m -1.59007,0.1086 c 0,-0.2316 -0.0174,-0.4538 -0.0507,-0.6695 -0.0362,-0.2156 -0.0955,-0.4067 -0.18094,-0.5732 -0.0854,-0.1664 -0.19541,-0.2996 -0.33292,-0.3995 -0.13534,-0.099 -0.30687,-0.1491 -0.51386,-0.1491 -0.10133,0 -0.2012,0.014 -0.29891,0.043 -0.097,0.027 -0.19758,0.076 -0.30108,0.1448 -0.10422,0.07 -0.20989,0.1592 -0.3199,0.2678 -0.11001,0.1107 -0.22581,0.246 -0.3474,0.4089 l 0,1.8043 c 0.21496,0.275 0.42123,0.4863 0.61809,0.6296 0.19685,0.1448 0.40312,0.2172 0.6188,0.2172 0.19975,0 0.36911,-0.051 0.50662,-0.152 0.13752,-0.1013 0.25332,-0.2338 0.34378,-0.3966 0.0919,-0.1622 0.15778,-0.3474 0.19831,-0.5544 0.0398,-0.207 0.0601,-0.4147 0.0601,-0.6225 z" fill="{secondary}"/></svg>
